<svg width="40" height="40" xmlns="http://www.w3.org/2000/svg" fill="none">
 <rect x="0" y="0" fill="#FFFFFF" ry="5" rx="5" height="40" width="40"/>
 <g>
   <path fill="#5B9BD5" d="m18.75958,7.70332c-1.0484,0.88644 -2.76775,3.50487 -3.85807,4.74587c-1.09032,1.2411 -2.16666,1.7866 -2.68387,2.7003c-0.5172,0.9137 -0.89462,1.732 -0.41935,2.7821c0.47527,1.0501 2.50215,2.8093 3.27096,3.5185c0.76882,0.7091 0.7828,0.6137 1.34194,0.7364c0.55913,0.1228 1.49569,0.2046 2.01289,0c0.5172,-0.2046 1.0763,-0.6819 1.0903,-1.2274c0.014,-0.5455 -0.5591,-1.5274 -1.0064,-2.0456c-0.4473,-0.5183 -1.314,-0.8319 -1.67744,-1.0638c-0.36344,-0.2318 -0.40538,-0.0818 -0.50323,-0.3273c-0.09785,-0.2454 -0.44731,-0.6409 -0.08386,-1.1455c0.36343,-0.5046 1.49573,-1.1183 2.26453,-1.882c0.7688,-0.7637 1.7613,-1.7456 2.3484,-2.7003c0.5871,-0.95462 1.1462,-2.23655 1.1742,-3.02754c0.0279,-0.79098 -0.2936,-1.45923 -0.8388,-1.63652c-0.5451,-0.17729 -1.3838,-0.31366 -2.4322,0.57279z"/>
   <path fill="#5B9BD5" d="m19.25238,16.25969c0.3559,0.5608 1.7521,1.3268 2.2996,1.7235c0.5475,0.3967 0.9582,0.3146 0.9855,0.6566c0.0274,0.3419 0.1095,0.3419 -0.8212,1.3951c-0.9308,1.0533 -3.4905,3.6521 -4.76344,4.9242c-1.27298,1.2721 -1.91632,1.6277 -2.87448,2.7083c-0.95815,1.0806 -2.46383,2.9272 -2.87447,3.7752c-0.41064,0.8481 -0.16425,1.0806 0.41064,1.3132c0.5749,0.2325 2.28589,0.3693 3.03873,0.082c0.75284,-0.2872 0.88972,-1.1216 1.4783,-1.8055c0.58858,-0.6839 0.78021,-0.9301 2.05322,-2.298c1.273,-1.3678 4.0516,-4.2813 5.5847,-5.909c1.533,-1.6277 3.1208,-2.8314 3.6136,-3.8573c0.4928,-1.0258 -0.2327,-1.614 -0.657,-2.2979c-0.4244,-0.6839 -1.2183,-1.4773 -1.889,-1.8055c-0.6707,-0.3283 -1.2456,-0.1095 -2.1353,-0.1642c-0.8897,-0.0547 -2.7513,-0.3419 -3.2851,-0.0821c-0.5338,0.2599 -0.5202,1.0806 -0.1643,1.6414z"/>
   <path fill="#5B9BD5" d="m20.61338,27.00839c0.458,0.7877 2.0818,2.404 2.748,3.2597c0.6662,0.8557 0.8327,1.4397 1.2491,1.8743c0.4164,0.4346 0.5968,0.6112 1.2491,0.7335c0.6523,0.1222 2.1651,0.2037 2.6648,0c0.4996,-0.2038 0.5968,-0.6248 0.3331,-1.2224c-0.2637,-0.5977 -1.4573,-1.6842 -1.9153,-2.3633c-0.458,-0.6792 -1.3463,-2.2683 -1.9986,-2.9338c-0.6523,-0.6655 -1.1103,-0.8421 -1.9153,-1.0594c-0.805,-0.2173 -2.0124,-0.0407 -2.4149,0.2445c-0.4025,0.2852 -0.458,0.6791 0,1.4669z"/>
 </g>
</svg>